<svg width="66" height="65" viewBox="0 0 66 65" fill="none" xmlns="http://www.w3.org/2000/svg">
<rect width="66" height="65" fill="#055087"/>
<path d="M15.0648 16.3607L17.3719 14.1567C18.8695 12.7261 21.2433 12.7804 22.6739 14.278L23.7103 15.3629L15.98 22.7475L14.9436 21.6626C13.513 20.1651 13.5673 17.7913 15.0648 16.3607Z" stroke="#B2CECF" stroke-width="2.5"/>
<path d="M51.16 48.1741L48.9016 50.428C47.4357 51.891 45.0613 51.8887 43.5983 50.4228L42.5384 49.3608L50.1054 41.8088L51.1652 42.8708C52.6283 44.3367 52.6259 46.7111 51.16 48.1741Z" stroke="#B2CECF" stroke-width="2.5"/>
<mask id="path-4-inside-1_1835_24" fill="white">
<path d="M14.151 26.234C13.3881 25.4353 13.417 24.1693 14.2157 23.4063L25.2318 12.8827C26.0305 12.1197 27.2965 12.1487 28.0595 12.9474L35.4543 20.6883L21.5458 33.9749L14.151 26.234Z"/>
</mask>
<path d="M14.151 26.234C13.3881 25.4353 13.417 24.1693 14.2157 23.4063L25.2318 12.8827C26.0305 12.1197 27.2965 12.1487 28.0595 12.9474L35.4543 20.6883L21.5458 33.9749L14.151 26.234Z" stroke="#B2CECF" stroke-width="5" mask="url(#path-4-inside-1_1835_24)"/>
<mask id="path-5-inside-2_1835_24" fill="white">
<path d="M51.8606 38.2834C52.6409 39.0652 52.6396 40.3315 51.8578 41.1118L41.0745 51.8738C40.2926 52.654 39.0263 52.6528 38.246 51.871L30.6837 44.2936L44.2983 30.706L51.8606 38.2834Z"/>
</mask>
<path d="M51.8606 38.2834C52.6409 39.0652 52.6396 40.3315 51.8578 41.1118L41.0745 51.8738C40.2926 52.654 39.0263 52.6528 38.246 51.871L30.6837 44.2936L44.2983 30.706L51.8606 38.2834Z" stroke="#B2CECF" stroke-width="5" mask="url(#path-5-inside-2_1835_24)"/>
<path d="M19.2422 35.6365L36.5859 19" stroke="#B2CECF" stroke-width="2.5" stroke-linecap="round"/>
<path d="M46.5703 28.9944L29.5945 46.0062" stroke="#B2CECF" stroke-width="2.5" stroke-linecap="round"/>
<path d="M30.4091 39.1769C30.8972 39.665 31.6887 39.665 32.1769 39.1769C32.665 38.6887 32.665 37.8972 32.1769 37.4091L30.4091 39.1769ZM23.4091 32.1769L30.4091 39.1769L32.1769 37.4091L25.1769 30.4091L23.4091 32.1769Z" fill="#B2CECF"/>
<path d="M38.7021 30.8839C39.1902 31.372 39.9817 31.372 40.4698 30.8839C40.958 30.3957 40.958 29.6043 40.4698 29.1161L38.7021 30.8839ZM31.7021 23.8839L38.7021 30.8839L40.4698 29.1161L33.4698 22.1161L31.7021 23.8839Z" fill="#B2CECF"/>
<path d="M10.9149 8.14825C10.4445 7.64297 9.65353 7.6147 9.14825 8.08511C8.64297 8.55552 8.6147 9.34647 9.08511 9.85175L10.9149 8.14825ZM9.08511 9.85175L14.671 15.8518L16.5008 14.1482L10.9149 8.14825L9.08511 9.85175Z" fill="#B2CECF"/>
<path d="M55.4907 56.2939C55.972 56.7888 56.7634 56.7998 57.2583 56.3184C57.7531 55.8371 57.7641 55.0457 57.2828 54.5508L55.4907 56.2939ZM57.2828 54.5508L51.567 48.6744L49.7749 50.4175L55.4907 56.2939L57.2828 54.5508Z" fill="#B2CECF"/>
</svg>
